<?xml version="1.0" standalone="no"?>
<!DOCTYPE svg PUBLIC "-//W3C//DTD SVG 1.1//EN" "http://www.w3.org/Graphics/SVG/1.1/DTD/svg11.dtd" >
<!--
2013-9-30: Created.
-->
<svg>
<metadata>
Created by iconfont
</metadata>
<defs>

<font id="iconfont" horiz-adv-x="1024" >
  <font-face
    font-family="iconfont"
    font-weight="500"
    font-stretch="normal"
    units-per-em="1024"
    ascent="896"
    descent="-128"
  />
    <missing-glyph />
    
    <glyph glyph-name="chenghao" unicode="&#58919;" d="M711.94624 639.40608l-21.9136 32.07168-182.86592-267.44832-182.8864 267.44832-21.93408-32.09216 182.8864-267.42784-182.8864-267.42784 21.93408-32.09216 182.8864 267.44832 182.86592-267.44832 21.9136 32.07168-182.86592 267.44832z"  horiz-adv-x="1024" />

    
    <glyph glyph-name="xiala" unicode="&#58882;" d="M755.342 462.11L537.778 224.20000000000005a34.238 34.238 0 0 0-25.718-11.637A34.238 34.238 0 0 0 486.34 224.20000000000005L268.777 462.11c-10.621 11.218-13.903 27.56799999-8.414 42.009s18.737 24.525 34.133 25.897l434.949 0c15.455-1.313 28.761-11.337 34.251-25.838 5.55-14.5 2.268-30.79-8.354-42.068z"  horiz-adv-x="1024" />

    
    <glyph glyph-name="xiaoxi" unicode="&#58991;" d="M511.552 895.936c-272.48 0-493.344-184.928-493.344-413.024 0-113.056 54.24-215.52 142.176-290.112l-33.248-159.392 137.024 92.096c72.736-35.36 157.216-55.616 247.424-55.616 272.48 0 493.344 184.928 493.344 413.024S784.064 895.936 511.584 895.936z m0-779.776c-98.048 0-188.8 25.472-262.784 68.64l-47.296-32.256 10.432 56.256C119.04 275.968 60.576 373.888 60.576 482.88c0 202.528 201.952 366.752 451.008 366.752S962.592 685.44 962.592 482.88 760.64 116.128 511.584 116.128zM258.368 472.992a45.664 45.664 0 0 1 91.328 0 45.664 45.664 0 0 1-91.328 0z m207.52 0a45.664 45.664 0 0 1 91.328 0 45.664 45.664 0 0 1-91.328 0z m207.552 0a45.664 45.664 0 0 1 91.328 0 45.664 45.664 0 0 1-91.328 0z"  horiz-adv-x="1024" />

    
    <glyph glyph-name="shanchu" unicode="&#58906;" d="M517.59 874.391c-100.299 0-181.703-79.514-185.167-179.34H98.603c-25.979 0-47.235-21.099-47.235-47.236 0-25.98 21.099-47.237 47.236-47.237h52.117v-528.416c0-99.196 67.233-180.285 150.37-180.285h423.55c82.98 0 150.37 80.616 150.37 180.285V600.263h47.236c25.98 0 47.236 21.1 47.236 47.237 0 25.98-21.099 47.236-47.236 47.236H702.441C699.449 794.876 617.888 874.39 517.59 874.39z m-96.677-179.34c3.464 51.172 45.19 90.85 96.834 90.85s93.37-39.835 96.362-90.85H420.913z m-119.98-714.842c-29.444 0-61.88 37.789-61.88 91.953V600.263h547.311V71.69c0-54.007-32.436-91.954-61.88-91.954H300.933v0.473z m0 0M364.387 93.733c21.57 0 39.363 21.571 39.363 48.653V419.978c0 27.082-17.635 48.654-39.363 48.654-21.572 0-39.364-21.572-39.364-48.654v-277.592c0-26.924 17.32-48.653 39.364-48.653z m142.496 0c21.571 0 39.363 21.571 39.363 48.653V419.978c0 27.082-17.635 48.654-39.363 48.654-21.571 0-39.364-21.572-39.364-48.654v-277.592c0-26.924 17.793-48.653 39.364-48.653z m149.896 0c21.571 0 39.364 21.571 39.364 48.653V419.978c0 27.082-17.635 48.654-39.364 48.654-21.571 0-39.363-21.572-39.363-48.654v-277.592c0-26.924 17.162-48.653 39.363-48.653z m0 0"  horiz-adv-x="1024" />

    
    <glyph glyph-name="xiaoxi1" unicode="&#58889;" d="M624.128 471.552c-22.528 0-33.792-9.728-33.792-29.184V384c0-19.456 11.264-29.184 33.792-29.184 22.528 0 33.792 9.728 33.792 29.184v58.368c0 19.456-11.264 29.184-33.792 29.184z m-224.256 0c-22.528 0-33.792-9.728-33.792-29.184V384c0-19.456 11.264-29.184 33.792-29.184s33.792 9.728 33.792 29.184v58.368c-0.512 19.456-11.776 29.184-33.792 29.184zM153.6 39.936L115.2-38.4c-11.264-13.312-13.824-32.256-6.144-48.128s23.552-26.112 40.96-26.112H512c273.92 0 496.64 222.72 496.64 496.64S785.92 880.64 512 880.64 15.36 657.92 15.36 384c0-128 49.152-251.392 138.24-344.064z m64.512-79.872c18.944 46.592 22.016 95.232-12.288 130.56C130.048 169.472 87.552 274.944 87.552 384c0 233.984 189.952 423.936 423.936 423.936S935.424 617.984 935.424 384 745.472-39.936 511.488-39.936H218.112zM512 176.128c32.768 0 64 16.384 84.992 44.544 3.584 4.608 3.072 11.264-1.024 14.848-1.536 1.536-3.584 2.56-6.144 2.56s-5.632-1.536-7.168-3.584c-17.92-23.552-44.032-37.376-71.168-37.376-27.648 0-53.248 13.312-71.168 37.376-2.048 2.56-4.608 3.584-7.168 3.584-2.048 0-4.096-1.024-6.144-2.56-2.048-2.048-3.072-4.608-3.072-7.168 0-2.56 0.512-5.632 2.048-7.68C448 192 479.232 176.128 512 176.128z"  horiz-adv-x="1024" />

    
    <glyph glyph-name="xuanze2" unicode="&#58963;" d="M512-128a512 512 0 1 0 512 512 512 512 0 0 0-512-512z m302.867692 736.098462a39.384615 39.384615 0 0 1-56.713846 0l-312.32-320.984616-141.784615 145.723077a39.384615 39.384615 0 0 1-56.713846 0 41.865846 41.865846 0 0 1 0-58.289231l170.141538-174.867692a39.384615 39.384615 0 0 1 56.713846 0l340.676923 350.129231a41.865846 41.865846 0 0 1 0 58.289231z"  horiz-adv-x="1024" />

    
    <glyph glyph-name="xingbiao" unicode="&#58900;" d="M512 831.6l145.4-294.7 325.2-47.2-235.3-229.4 55.5-323.9-290.8 153-290.8-153 55.5 323.9L41.4 489.7l325.2 47.2z"  horiz-adv-x="1024" />

    
    <glyph glyph-name="duigou" unicode="&#59189;" d="M511.505091 895.010181C228.554205 895.010181 0.617734 667.077323 0.617734 384.126437c0-282.947273 227.932859-510.880132 510.883744-510.880132 282.947273 0 510.87652 227.932859 510.87652 510.880132C1022.38161 667.077323 794.452364 895.010181 511.505091 895.010181z m0-943.163598c-239.723984 0-432.287079 192.563095-432.287079 432.279854 0 239.723984 192.563095 432.287079 432.287079 432.287079 239.716759 0 432.279854-192.563095 432.279854-432.287079 0-239.720372-192.563095-432.279854-432.279854-432.279854z m0 0M715.855698 564.902019l-208.284595-247.584735c-15.717888-15.721501-43.230514-19.648263-58.94479-7.86075l-149.336193 113.962817c-15.717888 11.791125-43.226902 7.864363-55.014415-7.857138-11.791125-15.717888-7.857138-43.226902 7.857138-55.014415l149.336193-113.962817c19.648263-15.725113 47.160889-23.582251 74.666291-23.58225 35.373376 0 70.739528 15.717888 94.318166 43.226901l208.280983 247.584735c15.721501 15.717888 11.791125 43.230514-3.930375 55.014414-19.651876 15.721501-43.230514 15.721501-58.948403-3.926762z m0 0"  horiz-adv-x="1024" />

    
    <glyph glyph-name="jiangjiatongzhi" unicode="&#58984;" d="M931.47163 356.863966 931.47163 356.863966 931.47163 356.863966l-55.9288 0 0 0c-15.45704 0-27.965935 12.153808-27.965935 27.101241 0 15.006785 12.506848 27.122731 27.965935 27.122731l0 0 55.9288 0 0 0 0 0c15.45704 0 27.962865-12.115945 27.962865-27.122731C959.434495 369.017774 946.927647 356.863966 931.47163 356.863966zM819.609936 682.194496l0 27.122731 55.93187 54.226019 27.965935-27.111474 0-27.114544-55.93187-54.231135L819.609936 682.194496zM693.77295 279.683143c-4.154623-2.38635-8.766664-4.154623-13.984503-4.154623-15.45704 0-27.965935 12.150738-27.965935 27.111474 0 14.982226 12.508895 27.114544 27.965935 27.114544l0 1.375324c31.897478 6.277984 55.9288 33.624818 55.9288 66.396199 0 32.81436-24.031323 60.134589-55.9288 66.409502l0 1.37737c-15.45704 0-27.965935 12.150738-27.965935 27.111474 0 14.982226 12.508895 27.109428 27.965935 27.109428 5.217838 0 9.829879-1.743714 13.984503-4.148483 55.872518-12.392238 97.874121-59.925834 97.874121-117.859291C791.647071 339.606931 749.645468 292.073334 693.77295 279.683143zM567.929824 4.411729c0 0-26.490328-0.997724-42.410925 9.800203l-265.200034 179.982164 0 0L120.497375 194.194096c-30.886451 0-55.93187 24.272823-55.93187 54.226019l0 271.114744c0 29.942963 25.042349 54.226019 55.93187 54.226019l139.821489 0 265.200034 179.982164c9.829879 6.667863 20.072151 9.800203 32.060183 9.800203 0 0 66.279542 4.279467 66.279542-54.226019L623.858624 58.635701C623.859647 28.692738 598.816275 4.411729 567.929824 4.411729zM567.929824 655.085068c0 56.477292-27.965935 27.109428-27.965935 27.109428L288.284799 519.534859l-139.824559 0 0 0 0 0 0 0 0 0c-15.45704 0-27.962865-12.127202-27.962865-27.109428l0-216.896912c0-14.957667 12.506848-27.109428 27.962865-27.109428l0 0 0 0 139.824559 0 251.680113-162.67294c0 0 27.965935-23.719214 27.965935 0C567.929824 109.477646 567.929824 655.085068 567.929824 655.085068zM903.505695 58.635701l0-27.111474-27.962865-27.111474-55.93187 54.223972 0 27.111474 27.965935 27.122731L903.505695 58.635701z"  horiz-adv-x="1024" />

    
    <glyph glyph-name="shoucang1" unicode="&#59197;" d="M783.29130401 267l-0.82173868-0.82173955a27.74347823 27.74347823 0 0 1-7.31739111-24.14347823l36.15652177-219.83478222c9.19565244-55.95652177-48.40434756-99.62608711-98.13913066-72l-189 104.16521777a22.61739112 22.61739112 0 0 1-22.30434755 0l-189-104.12608711c-49.85217422-27.70434756-107.92173955 16.16086934-98.217392 72l36.07826133 219.20869512c1.48695645 10.05652178-1.33043467 19.05652178-7.90434756 25.39565245L89.70434756 422.81739112c-38.97391289 39.6-17.60869599 108.23478223 37.48695645 117l211.61739198 32.47826132a24.57391289 24.57391289 0 0 1 18.39130401 14.86956534l93.91304355 199.95652177a66.52173955 66.52173955 0 0 0 121.18695645 0l94.14782578-200.30869599c3.32608711-7.35652178 10.95652178-13.18695644 18-14.47826133l212.24347823-32.47826046c55.13478222-8.21739112 76.61739112-77.08695644 37.8-116.53043466l-151.2-156.32608711z m106.39565244 200.03478223c3.6 3.67826045 1.56521777 10.33043467-2.34782578 10.91739199l-213.3 32.63478222a89.37391289 89.37391289 0 0 0-64.408696 49.96956534l-93.991304 199.95652177c-1.95652177 4.06956533-5.90869599 4.06956533-7.82608711 1e-8L413.97826045 560.86956533a86.98695644 86.98695644 0 0 0-65.54347823-50.47826132l-211.57826044-32.47826046c-4.03043467-0.62608711-6.18260888-7.51304356-2.50434756-11.23043467l152.45217334-155.34782666c21.05217422-20.15217422 30.13043467-49.46086933 25.82608711-79.51304267l-36.27391289-220.108696c-0.9-5.28260888 3.24782578-8.41304356 6.26086934-6.73043467l189.07826132 104.24347823a85.30434756 85.30434756 0 0 0 82.64347822-0.03913067l189.11739112-104.24347821c2.89565244-1.60434756 7.00434756 1.52608711 6.10434755 7.04347821l-36.27391289 220.42173955c-4.26521778 29.23043467 4.69565244 58.30434756 25.39565244 78.45652178l151.00434756 156.13043467z"  horiz-adv-x="1024" />

    
    <glyph glyph-name="gengduo" unicode="&#58996;" d="M515.1-62.8c-60.3 0-118.8 11.8-174 35.1-53.2 22.5-101 54.7-142 95.8s-73.2 88.8-95.8 142c-23.3 55.1-35.1 113.6-35.1 174S80 502.9 103.4 558c22.5 53.2 54.7 101 95.8 142s88.8 73.2 142 95.8c55.1 23.3 113.6 35.1 174 35.1 60.3 0 118.8-11.8 174-35.1 53.2-22.5 101-54.7 142-95.8 41-41 73.2-88.8 95.8-142 23.3-55.1 35.1-113.6 35.1-174S950.3 265.2 927 210c-22.5-53.2-54.7-101-95.8-142-41-41-88.8-73.2-142-95.8-55.3-23.2-113.8-35-174.1-35z m0 811.7c-201.2 0-364.9-163.7-364.9-364.9s163.7-364.9 364.9-364.9S880 182.8 880 384c0 201.3-163.7 364.9-364.9 364.9zM289.1 384.1m-49.9 0a49.9 49.9 0 1 1 99.8 0 49.9 49.9 0 1 1-99.8 0ZM515.1 384.1m-49.9 0a49.9 49.9 0 1 1 99.8 0 49.9 49.9 0 1 1-99.8 0ZM741.1 384.1m-49.9 0a49.9 49.9 0 1 1 99.8 0 49.9 49.9 0 1 1-99.8 0Z"  horiz-adv-x="1024" />

    
    <glyph glyph-name="piao" unicode="&#58993;" d="M829.4 82.4H192.6C121.6 82.4 64 140 64 211v91.7c0 20.8 15.5 38.3 36.1 40.7 41.8 5 73.2 40.5 73.2 82.6s-31.5 77.7-73.2 82.6c-20.6 2.5-36.1 20-36.1 40.8V641c0 71 57.6 128.6 128.6 128.6h636.8c71 0 128.6-57.6 128.6-128.6v-91.8c0-20.6-15.3-38-35.7-40.7-41.3-5.3-72.4-40.8-72.4-82.5s31.1-77.2 72.4-82.5c20.4-2.6 35.7-20.1 35.7-40.7V211c0-71-57.6-128.6-128.6-128.6zM146 270.4V211c0-25.7 20.9-46.6 46.6-46.6h636.8c25.7 0 46.6 20.9 46.6 46.6v59.9c-63.6 23.5-108.1 84.8-108.1 155.1S812.4 557.6 876 581.1V641c0 25.7-20.9 46.6-46.6 46.6H192.6c-25.7 0-46.6-20.9-46.6-46.6v-59.4C210.3 558.5 255.4 497 255.4 426S210.3 293.5 146 270.4zM384.1 513.6c-22.3 0-40.5 18.2-40.5 40.5v44.1c0 22.3 18.2 40.5 40.5 40.5s40.5-18.2 40.5-40.5v-44.1c0-22.3-18.3-40.5-40.5-40.5zM384.1 363.4c-22.3 0-40.5 18.2-40.5 40.5V448c0 22.3 18.2 40.5 40.5 40.5s40.5-18.2 40.5-40.5v-44.1c0-22.2-18.3-40.5-40.5-40.5zM384.1 213.3c-22.3 0-40.5 18.2-40.5 40.5v44.1c0 22.3 18.2 40.5 40.5 40.5s40.5-18.2 40.5-40.5v-44.1c0-22.3-18.3-40.5-40.5-40.5z"  horiz-adv-x="1024" />

    
    <glyph glyph-name="menu06" unicode="&#59155;" d="M460.8 366.93333299999995H227.555556V452.266667h187.733333L238.933333 668.444444l68.266667 56.888889 199.111111-238.933333L705.422222 725.333333l68.266667-56.888889-176.355556-216.177777h193.422223v-85.333334H551.822222v-102.4h233.244445v-91.022222H551.822222V-14.222221999999988H460.8v187.733333H227.555556v91.022222h233.244444z"  horiz-adv-x="1024" />

    
    <glyph glyph-name="shoucang-copy" unicode="&#58973;" d="M707.584 802.816c-77.312 0-148.992-38.912-196.608-102.912-47.104 64-119.296 102.912-196.608 102.912-139.264 0-252.416-123.904-252.416-275.968 0-90.624 40.448-154.624 73.216-205.824C229.888 172.03200000000004 468.48-12.799999999999955 478.72-20.480000000000018c9.728-7.68 20.992-11.264 32.256-11.264s22.528 3.584 32.256 11.264c10.24 7.68 248.32 193.024 343.552 341.504 32.768 51.2 73.216 115.2 73.216 205.824 0 152.064-113.152 275.968-252.416 275.968zM821.76 322.55999999999995c-87.552-122.88-272.896-263.168-282.112-269.824-8.704-6.656-18.944-10.24-28.672-10.24-10.24 0-19.968 3.072-28.672 10.24-9.216 6.656-190.976 148.48-282.112 274.944-29.184 46.08-75.776 103.424-75.776 184.32 0 136.192 75.776 231.936 200.192 231.936 69.12 0 144.384-66.048 186.368-123.392 42.496 57.344 117.248 123.392 186.368 123.392 124.928 0 205.824-95.744 205.824-231.936 0-80.896-51.712-143.872-81.408-189.44z"  horiz-adv-x="1024" />

    
    <glyph glyph-name="kefu" unicode="&#58888;" d="M504.169423-127.939765c-12.047041 0-24.033847 4.186347-33.731715 12.528923L300.574429 30.599296a527.509812 527.509812 0 0 0-75.203655 36.924181C84.299923 151.702177 0.000753 292.441735 0.000753 444.083865c0 61.620615 13.613156 121.253469 40.357588 177.422797 25.660198 53.880391 62.343438 102.219144 108.965486 143.691083a513.023246 513.023246 0 0 0 160.135294 95.954683A556.302241 556.302241 0 0 0 504.530835 895.998494c67.614018 0 133.119804-11.775983 194.98136-34.966537a507.029843 507.029843 0 0 0 160.105176-95.954682c46.652167-41.471939 83.335407-89.690221 108.965487-143.660965a409.659633 409.659633 0 0 0 40.357588-177.452916c0-93.84645-31.774071-183.9282-91.858689-260.216088-56.711446-72.041306-134.625684-127.126401-225.550727-159.623294l-152.51554-138.661444a52.103453 52.103453 0 0 0-34.846067-13.402333z m0.361412 952.770364c-238.892825 0-433.241716-170.766808-433.241716-380.746734 0-126.373461 71.288366-244.253758 190.674543-315.451772 22.196673-13.251745 45.778756-24.545846 70.053544-33.852185l5.90305-2.228703 166.128697-142.817672 150.437426 136.94474 6.987284 2.319055c165.285404 56.560858 276.329005 199.13759 276.329005 354.966066 0 210.070279-194.379008 380.867205-433.271833 380.867205zM504.530835 225.068657c-57.645092 0-112.127835 20.118559-153.358834 56.711446-42.345349 37.647003-65.656374 87.9434-65.656374 141.853909a35.599006 35.599006 0 0 0 71.167896 0c0-70.204132 66.258726-127.276989 147.877429-127.276989 81.437998 0 147.817194 57.072857 147.817195 127.246872a35.599006 35.599006 0 0 0 71.167895 0c0-53.850274-23.311025-104.176788-65.656374-141.853909-41.200881-36.56277-95.683624-56.681328-153.358833-56.681329z"  horiz-adv-x="1024" />

    
    <glyph glyph-name="shouyin" unicode="&#58983;" d="M519.444482 69.964879a51.197813 51.197813 0 0 1 52.264435 52.477758v104.528869h104.742193a52.477759 52.477759 0 0 1 0 104.742194H571.708917V383.978134h104.742193a52.477759 52.477759 0 0 1 0 104.742194H597.307823l71.036966 67.19713a56.957567 56.957567 0 0 1 0 74.663478 56.744243 56.744243 0 0 1-74.876802 0l-66.557157-67.197131-67.19713 67.197131a56.744243 56.744243 0 0 1-74.876802 0 56.957567 56.957567 0 0 1 0-74.663478l71.036966-71.036966h-89.596174a52.477759 52.477759 0 0 1 0-104.742194h104.528869v-52.264434h-104.528869a52.264435 52.264435 0 0 1 0-104.528869h104.528869v-104.742194c-3.626512-22.399043 22.399043-48.637923 48.637923-48.637922zM964.225486 626.954424a60.797403 60.797403 0 0 1-41.171575 18.559207A49.49122 49.49122 0 0 1 874.629313 597.302357a60.157431 60.157431 0 0 1 11.306184-33.705227 426.648445 426.648445 0 0 0 41.171574-183.245508A411.075777 411.075777 0 1 0 515.81797 791.214075a432.834848 432.834848 0 0 0 239.136454-74.663478 48.211274 48.211274 0 0 1 40.958251-18.559207 50.984489 50.984489 0 0 1 52.477758 52.264434 66.557157 66.557157 0 0 1-14.932695 37.331739c-3.839836 3.626512-3.839836 3.626512-7.466348 3.626512A503.231841 503.231841 0 0 1 511.978134 895.956269a508.564947 508.564947 0 1 1 459.7137-283.934541 19.839153 19.839153 0 0 1-7.466348 14.932696z"  horiz-adv-x="1024" />

    
    <glyph glyph-name="icon-test1" unicode="&#58907;" d="M808.6 492.8c0 178.8-129.8 308.5-308.5 308.5-170.1 0-308.5-138.4-308.5-308.5 0-125.6 170.6-338.3 262.3-452.6l6.8-8.4c9.6-12 24-18.9 39.5-18.9 15.4 0 29.8 6.9 39.5 18.9l6.8 8.4c91.5 114.3 262.1 327 262.1 452.6z m-310.1-89.4c-62.9 0-114 51.1-114 114s51.1 114 114 114 114-51.1 114-114-51.1-114-114-114zM500.1 828.2c-184.9 0-335.4-150.4-335.4-335.4 0-135 174.5-352.5 268.2-469.4l6.7-8.4c14.8-18.4 36.8-29 60.4-29s45.6 10.6 60.4 29l6.8 8.4C661 140.3 835.4 357.8 835.4 492.8c0 194.3-141 335.4-335.3 335.4z m0-815.3c-15.4 0-29.8 6.9-39.5 18.9l-6.8 8.4c-91.7 114.3-262.3 327-262.3 452.6 0 170.1 138.4 308.5 308.5 308.5 178.8 0 308.5-129.8 308.5-308.5 0-125.6-170.6-338.3-262.3-452.6l-6.8-8.4c-9.5-12-23.9-18.9-39.3-18.9zM498.5 517.4m-87.2 0a87.2 87.2 0 1 1 174.4 0 87.2 87.2 0 1 1-174.4 0ZM612.5 517.4c0 62.9-51.1 114-114 114s-114-51.1-114-114 51.1-114 114-114 114 51.1 114 114z m-201.2 0c0 48.1 39.1 87.2 87.2 87.2s87.2-39.1 87.2-87.2-39.1-87.2-87.2-87.2-87.2 39.1-87.2 87.2z"  horiz-adv-x="1024" />

    
    <glyph glyph-name="dianpu" unicode="&#59016;" d="M951.324794 481.881284 951.324794 481.881284c0 3.885494-1.946328 5.826705-1.946328 5.826705L873.608781 676.160059c-13.599739 38.856983-50.512441 62.170968-95.196129 62.170968L249.973238 738.331028c-44.683688 0-79.652108-23.313985-93.249801-60.22464L75.126025 485.766778c0-1.940189 0-1.940189-1.946328-3.885494-5.826705-17.485233-9.713222-36.912701-9.713222-54.397934 0-66.051345 36.912701-126.281101 93.25594-155.420769l0 0 0 0 0 0 0 0c23.312962-13.599739 52.451606-19.431561 83.537602-19.431561 52.456722 0 101.027951 23.317055 135.994324 64.11525 33.031301-38.856983 81.597413-62.169945 134.054135-62.169945 52.456722 0 101.022835 23.312962 134.054135 62.169945 33.025161-38.856983 81.59639-62.169945 135.994324-62.169945 33.026184 0 60.22464 7.772011 85.482907 19.425422 56.339146 31.084972 93.251847 91.310635 93.251847 155.426909C961.036993 444.968583 957.151499 464.395028 951.324794 481.881284L951.324794 481.881284 951.324794 481.881284 951.324794 481.881284zM836.697103 328.399681c-15.539928-7.772011-33.026184-11.653411-54.397934-11.653411-38.85289 0-75.769684 19.426445-95.196129 54.397934-1.941212 3.88754-3.886517 7.767917-7.773034 13.599739-5.826705 5.826705-15.539928 13.599739-31.080879 13.599739-13.599739 0-25.258267-5.831822-31.084972-13.599739-3.885494-5.831822-5.831822-9.713222-7.772011-13.599739-21.372773-33.030277-56.344263-54.397934-95.197152-54.397934-38.856983 0-73.828472 19.426445-95.196129 54.397934-1.944282 3.88754-3.885494 7.767917-7.773034 11.654434-15.539928 17.48728-48.571229 17.48728-62.169945 1.946328-5.826705-5.831822-7.767917-9.713222-9.714246-13.599739-21.37175-33.030277-56.338123-52.456722-95.196129-54.397934-21.37175 0-38.856983 3.882424-52.456722 11.653411l0 0 0 0c-36.912701 19.426445-60.22464 58.285474-60.22464 99.082646 0 11.658528 1.940189 25.258267 5.826705 36.912701l0 1.946328 79.656201 188.44593c1.940189 3.886517 5.826705 19.431561 31.083949 19.431561L778.412652 674.219871c9.717316 0 27.198455-1.944282 34.971489-21.37175l75.769684-186.506764 0-3.88754c3.88754-11.658528 5.826705-25.258267 5.826705-36.912701C894.980531 384.743944 873.608781 347.827149 836.697103 328.399681L836.697103 328.399681 836.697103 328.399681 836.697103 328.399681zM861.95537 223.491353c-17.485233 0-33.026184-13.599739-33.026184-33.026184l0-174.85233c0-9.713222-7.772011-17.485233-17.485233-17.485233L205.28955-1.872395c-9.714246 0-17.482163 7.773034-17.482163 17.485233l0 172.908048c0 17.485233-13.598716 33.030277-33.030277 33.030277l0 0c-17.485233 0-33.026184-13.599739-33.026184-33.030277l0-172.908048c0-44.683688 36.912701-81.59639 81.597413-81.59639l606.15031 0c44.683688 0 81.59639 36.912701 81.59639 83.537602l0 174.85233C893.040343 209.891613 879.440603 223.491353 861.95537 223.491353L861.95537 223.491353 861.95537 223.491353 861.95537 223.491353zM764.812913 450.795289 249.973238 450.795289c-17.485233 0-33.025161 13.599739-33.025161 33.031301 0 17.48114 13.598716 33.025161 33.025161 33.025161L764.812913 516.851751c17.485233 0 33.030277-13.598716 33.030277-33.025161C797.84319 464.395028 782.299169 450.795289 764.812913 450.795289L764.812913 450.795289 764.812913 450.795289 764.812913 450.795289zM764.812913 450.795289"  horiz-adv-x="1024" />

    
    <glyph glyph-name="dizhi" unicode="&#59126;" d="M523.28 139.136a16 16 0 0 0-22.56 0C348.24 290.784 272 409.76 272 496c0 132.544 107.456 240 240 240 132.544 0 240-107.456 240-240 0-86.256-76.24-205.216-228.72-356.864zM688 496c0 97.2-78.8 176-176 176s-176-78.8-176-176c0-58.576 57.696-153.504 176-277.008C630.304 342.512 688 437.424 688 496zM416.16 115.024C439.6 103.312 474.176 96 512 96s72.416 7.312 95.84 19.024c3.36 1.68 6.288 3.36 8.8 4.96a130.4 130.4 0 0 1-13.44 8.096 8 8 0 0 0-1.92 12.688l39.088 39.44C669.904 164.464 688 143.296 688 120c0-48.608-78.8-88-176-88s-176 39.392-176 88c0 23.52 18.432 44.864 48.48 60.64l38.08-40.112a8 8 0 0 0-1.936-12.512c-6.144-3.392-10.56-6.08-13.28-8.016 2.528-1.616 5.472-3.296 8.832-4.976zM512 400a96 96 0 1 0 0 192 96 96 0 0 0 0-192z m0 64a32 32 0 1 1 0 64 32 32 0 0 1 0-64z"  horiz-adv-x="1024" />

    
    <glyph glyph-name="xuanzhong" unicode="&#58881;" d="M740.4 573.3c12.5 11.9 32.2 11.5 44.2-0.9 11.9-12.5 11.5-32.2-0.9-44.2L414.2 174 240.3 340.6c-12.5 11.9-12.9 31.7-0.9 44.2 11.9 12.5 31.7 12.9 44.2 0.9l130.6-125.1 326.2 312.7zM512-64C264.6-64 64 136.6 64 384S264.6 832 512 832s448-200.6 448-448-200.6-448-448-448z m0 62.5c212.9 0 385.5 172.6 385.5 385.5S724.9 769.5 512 769.5 126.5 596.9 126.5 384 299.1-1.5 512-1.5z"  horiz-adv-x="1024" />

    
    <glyph glyph-name="elipsis" unicode="&#58990;" d="M192 384m-64 0a64 64 0 1 1 128 0 64 64 0 1 1-128 0ZM512 384m-64 0a64 64 0 1 1 128 0 64 64 0 1 1-128 0ZM832 384m-64 0a64 64 0 1 1 128 0 64 64 0 1 1-128 0Z"  horiz-adv-x="1024" />

    
    <glyph glyph-name="weixin1" unicode="&#58880;" d="M654.08852029 523.39588149c4.45321125 0 8.80285984-0.05178194 13.15250965-0.25890847C644.1982483 649.27678222 514.69264001 745.9011188100001 358.41597986 745.9011188100001 185.77635555 745.95290075 45.96622222 628.14991762 45.96622222 482.90272355c0-85.12883675 48.05326105-160.88521599 122.61866549-208.93847704l2.89976532-1.81235318L141.24423941 176.87387614 254.23153895 234.86919110999997l5.33349808-1.55344593a366.45789392 366.45789392 0 0 1 119.82246283-12.73825659 205.21020682 205.21020682 0 0 0-9.8902732 62.75921541c0 132.56071941 127.43434786 240.11095822 284.59129363 240.11095822z m-186.93132561 92.84428443c24.23375645 0 43.80717511-19.15916683 43.8071751-42.7715449a43.28935939 43.28935939 0 0 0-43.8071751-42.77154368 43.34114133 43.34114133 0 0 0-43.91073899 42.77154368c0 23.61237808 19.67698132 42.7715449 43.91073899 42.7715449z m-217.48242963-85.54308858a43.34114133 43.34114133 0 0 0-43.85895705 42.77154368c0 23.61237808 19.67698132 42.7715449 43.85895705 42.7715449 24.28553838 0 43.91073777-19.15916683 43.91073777-42.7715449 0-23.61237808-19.67698132-42.7715449-43.91073777-42.77154368zM408.43693868 272.15189333c0-118.99395792 127.53791052-215.41116799 284.79841894-215.41116799 31.5349523 0 61.82714785 3.83183289 90.0998637 10.97768414l4.86746431 1.29453868 102.94168296-47.48366461-27.4959929 77.98298547 2.58907736 1.50166521C934.17482073 140.36789689 978.03377778 202.35038931999998 978.03377778 272.15189333c0 118.99395792-127.48612859 215.41116799-284.79842016 215.41116799-157.26050964 0-284.79842016-96.41721006-284.79841894-215.41116799z m343.932928 74.20293333c0 19.31451141 17.86462815 35.00431527 39.97534101 35.00431526 22.11071408 0 39.97534223-15.68980385 39.97534223-35.00431526 0-19.36629214-17.86462815-35.05609599-39.97534223-35.05609599-22.11071408 0-39.97534223 15.68980385-39.97534101 35.05609599z m-198.21970015 0c0 19.31451141 17.91641008 35.00431527 39.97534102 35.00431526 22.11071408 0 40.02712295-15.68980385 40.02712416-35.00431526 0-19.36629214-17.91641008-35.05609599-40.02712416-35.05609599-22.05893215 0-39.97534223 15.68980385-39.97534102 35.05609599z"  horiz-adv-x="1024" />

    
    <glyph glyph-name="jd" unicode="&#59011;" d="M674.923-11.648H442.176V779.648h232.747C867.712 779.648 1024 602.496 1024 384S867.712-11.648 674.923-11.648z m0 698.197H535.275v-605.077h139.648c141.376 0 256 135.467 256 302.55 0 167.082-114.624 302.527-256 302.527zM46.549-11.648H0v93.099h46.55c102.826 0 186.197 83.349 186.197 186.197v512h93.098v-512c-0.021-154.24-125.056-279.296-279.296-279.296z"  horiz-adv-x="1024" />

    
    <glyph glyph-name="jd1" unicode="&#59173;" d="M853.333333 896a170.666667 170.666667 0 0 0 170.666667-170.666667v-682.666666a170.666667 170.666667 0 0 0-170.666667-170.666667H170.666667a170.666667 170.666667 0 0 0-170.666667 170.666667V725.333333a170.666667 170.666667 0 0 0 170.666667 170.666667z m-278.272-819.242667c-7.850667 0-15.786667-1.152-16.896-2.816l0.554667 2.218667-2.048-6.741333a123.306667 123.306667 0 0 1-2.986667-14.08 143.530667 143.530667 0 0 0-14.08-39.424c-7.893333-15.786667-9.002667-20.821333-3.968-20.821334 11.861333 0 42.24 42.24 51.84 72.106667 2.816 8.405333 1.706667 9.557333-12.373333 9.557333z m17.493334 99.114667c-12.373333 0-15.786667-2.261333-17.493334-6.186667v0.554667c-1.706667-4.522667-8.448-6.186667-23.637333-6.186667-15.189333 0-20.821333-1.706667-20.821333-6.186666 0-4.522667 4.48-6.784 17.450666-6.784 9.557333 0 16.896 0 16.896-2.261334-3.413333-9.557333-7.893333-19.114667-12.970666-28.16a199.253333 199.253333 0 0 1-12.928-29.866666c0-2.773333 15.786667-4.48 41.088-4.48h41.130666v-34.346667c0-29.866667-1.152-35.498667-8.448-39.424a16.853333 16.853333 0 0 1-8.448-11.818667c0-9.6 26.453333-2.261333 37.717334 10.666667 8.448 9.045333 9.6 15.786667 9.6 42.837333v32.085334h42.794666c34.901333 0 43.349333 1.152 43.349334 6.186666 0 5.12-8.448 6.229333-41.088 7.338667l-42.24 1.706667-3.413334 17.450666c-1.109333 17.450667-1.706667 18.005333-16.298666 18.005334-13.525333 0-14.549333 0-14.634667-15.061334v-23.210666h-20.864a68.181333 68.181333 0 0 0-23.637333 2.816c1.109333 8.96 4.48 18.005333 8.96 25.898666l11.306666 23.04h74.325334c63.104 0 74.368 0 74.368 6.826667 0 5.034667-6.016 5.973333-34.474667 6.144h-59.392c-40.021333 0.128-47.274667 0.896-45.824 6.229333 1.706667 6.186667 0 6.186667-12.373333 6.186667z m-266.410667-97.450667c-16.341333 0-14.08 0-21.973333-26.453333-3.925333-14.08-9.557333-28.16-16.341334-41.130667l-8.448-14.08h9.045334c10.112 0 30.976 25.898667 43.946666 54.058667 11.221333 23.68 10.112 27.605333-6.229333 27.605333z m159.402667 60.288H289.536l-1.706667-24.789333a198.826667 198.826667 0 0 1 0-25.898667c14.677333-1.706667 29.312-2.261333 44.501334-1.706666h41.130666v-23.082667c0-33.237333-4.522667-49.024-12.970666-51.84a11.434667 11.434667 0 0 1-8.448-9.557333c0-9.557333 24.789333-4.522667 37.162666 8.448 8.448 7.893333 10.154667 12.970667 10.154667 42.794666v33.792h86.186667v51.84z m-37.76-59.136c-10.112 0-14.08-2.261333-14.08-6.229333l1.152-0.554667c6.741333-22.528 17.450667-43.349333 32.085333-61.952a41.386667 41.386667 0 0 1 19.157333-13.525333c7.296 0 7.296 1.152-2.261333 18.602667a139.605333 139.605333 0 0 0-15.189333 41.130666c-5.12 20.821333-5.632 22.528-20.864 22.528z m247.253333-2.816h-14.464l2.816-7.893333a243.2 243.2 0 0 1 7.125333-16.896c11.264-25.344 34.944-54.613333 43.946667-54.613333 9.002667 0 7.893333 2.218667-1.706667 15.189333a203.434667 203.434667 0 0 0-15.189333 36.053333c-7.338667 25.898667-7.893333 27.008-22.528 28.16z m-233.728 48.981334l-1.109333-11.818667-1.152-11.818667H317.141333l-1.152 11.818667-1.706666 11.818667h147.029333z m-87.893333 44.501333c-1.664-5.077333-11.221333-6.186667-47.829334-6.186667s-45.056-1.152-45.056-6.186666c0-4.693333 12.544-6.528 88.192-6.741334h54.613334c61.568 0.085333 72.32 0.938667 72.32 6.741334 0 6.741333-8.448 6.186667-47.317334 6.186666-39.424 0-47.274667 1.109333-47.274666 6.186667s-4.522667 6.186667-12.373334 6.186667a14.506667 14.506667 0 0 1-15.232-6.186667z m229.248 233.728a180.48 180.48 0 0 0-12.928-4.522667 140.970667 140.970667 0 0 0-57.472 0c-3.370667 1.152-7.296-0.554667-8.448-3.925333-11.818667-20.266667-23.04-38.826667-35.456-59.733333a17.706667 17.706667 0 0 0-9.6-7.253334c-0.554667 0-1.706667-0.597333-2.261334-0.597333a23.04 23.04 0 0 0-28.16 17.493333c-1.109333 2.773333-2.218667 5.589333-2.218666 8.405334a34.133333 34.133333 0 0 1 0-23.637334c5.034667-11.264 15.786667-19.2 27.562666-20.864l-37.12-63.061333c10.666667-2.261333 12.373333-1.706667 18.56 5.077333 8.448 10.666667 19.157333 21.376 29.269334 31.530667 5.632 5.077333 11.264 10.154667 17.493333 15.189333 3.370667 2.261333 6.741333 3.968 10.666667 5.632-0.554667-20.266667-2.261333-38.826667-2.261334-58.026666h12.202667c2.944 0.426667 3.925333 2.602667 5.290667 6.229333 2.816 11.264 6.741333 22.528 10.666666 33.237333 2.816 7.893333 7.338667 14.634667 12.373334 20.821334a7.552 7.552 0 0 0 3.968 3.413333c5.12 2.218667 11.264 0.554667 13.525333-4.522667 2.816-4.522667 5.077333-9.6 6.741333-14.634666 3.968-13.525333 6.784-27.050667 10.154667-40.021334 0.554667-1.706667 2.261333-3.925333 3.413333-3.925333h14.08z m69.845333 337.365333c-26.453333 0.554667-53.504-0.554667-79.957333-2.261333-22.528-1.706667-45.056-4.522667-67.029334-9.002667-47.317333-10.709333-92.928-26.453333-136.32-47.317333a267.733333 267.733333 0 0 1-75.434666-48.981333c-6.784-6.229333-12.373333-13.525333-18.602667-19.712a375.381333 375.381333 0 0 1-29.866667 16.896 134.485333 134.485333 0 0 1-20.821333 8.448 20.906667 20.906667 0 0 1-24.234667-11.264c-2.816-5.12-4.48-10.709333-6.186666-16.341334a334.677333 334.677333 0 0 0-33.792-86.186666c-6.741333-10.666667-11.264-23.082667-14.08-35.456a34.645333 34.645333 0 0 1 0-15.232 27.477333 27.477333 0 0 1 33.792-19.157334 142.08 142.08 0 0 1 51.242666 23.68c19.712 12.928 30.976 35.456 29.312 59.136-0.554667 13.525333-2.816 27.008-2.816 39.978667l2.261334-1.109333c5.034667-1.152 7.296-5.12 8.96-11.264 2.304-7.338667 5.12-14.677333 9.045333-20.864 10.154667-16.896 23.637333-32.085333 39.424-44.501334a410.837333 410.837333 0 0 1 167.850667-82.218666 208.213333 208.213333 0 0 1 111.488 0 266.24 266.24 0 0 1 140.245333 98.005333c5.077333 7.338667 10.154667 14.634667 15.189333 22.528-2.816-0.554667-5.632-1.706667-8.448-2.816-2.816-1.109333-5.034667-2.261333-7.850666-2.816a260.053333 260.053333 0 0 0-140.8-5.077333 194.56 194.56 0 0 0-100.821334 59.136 17.322667 17.322667 0 0 0-5.632 8.448 8.362667 8.362667 0 0 0 2.261334 7.893333c1.706667 2.261333 5.632 1.109333 8.448 0 2.218667-1.706667 4.48-3.925333 6.186666-6.186667 18.005333-19.712 40.533333-35.498667 65.877334-45.653333a247.04 247.04 0 0 1 134.058666-8.405333c15.786667 2.816 31.573333 7.850667 46.165334 15.786666a30.933333 30.933333 0 0 1 14.634666 13.482667 247.893333 247.893333 0 0 1 21.418667 66.474667c1.706667 13.482667 1.706667 27.562667 0 41.088a54.954667 54.954667 0 0 1-34.346667 39.978666 229.717333 229.717333 0 0 1-100.821333 20.864z m-153.173333-61.866666l3.370666-0.085334a17.92 17.92 0 0 0 18.005334-16.896v-0.554666a17.536 17.536 0 0 0-18.56-15.786667h-3.413334a16.938667 16.938667 0 0 0-14.634666 18.602667 16.938667 16.938667 0 0 0 18.602666 14.634666z m208.938666 46.634666c13.525333 0.597333 27.008-2.218667 39.978667-7.296 4.522667-2.816 10.666667-5.077333 10.666667-11.818666 0-6.784-3.925333-12.373333-10.112-14.677334-8.448-3.370667-17.450667-6.186667-26.453334-7.296-17.493333-2.816-35.498667-2.261333-52.906666 1.706667a67.114667 67.114667 0 0 0-11.306667 4.48 8.96 8.96 0 0 0-5.632 4.522667 11.349333 11.349333 0 0 0 3.925333 15.786666c9.045333 6.741333 19.2 11.221333 30.421334 12.373334 6.784 2.218667 14.08 2.218667 21.418666 2.218666z"  horiz-adv-x="1024" />

    
    <glyph glyph-name="icon-test" unicode="&#58939;" d="M384 128a64 64 0 1 1 0.032-128.032A64 64 0 0 1 384 128M704 128a64 64 0 1 1 0.032-128.032A64 64 0 0 1 704 128M312.672 384l-51.456 192h560.96l-51.456-192H312.672z m583.36 224a32 32 0 0 1-32 32H244.064L209.824 768H96v-64h64.672l145.728-544H800v64H355.52l-25.664 96H819.84l12.16 45.376 64 238.88-0.768 0.192C895.424 605.664 896 606.72 896 608z"  horiz-adv-x="1024" />

    
    <glyph glyph-name="arrow-down" unicode="&#58981;" d="M512 181.333333c-8.533333 0-17.066667 2.133333-23.466667 8.533334l-341.333333 341.333333c-12.8 12.8-12.8 32 0 44.8 12.8 12.8 32 12.8 44.8 0l320-317.866667 317.866667 320c12.8 12.8 32 12.8 44.8 0 12.8-12.8 12.8-32 0-44.8L533.333333 192c-4.266667-8.533333-12.8-10.666667-21.333333-10.666667z"  horiz-adv-x="1024" />

    
    <glyph glyph-name="discover" unicode="&#59121;" d="M511.052-60.72c-60.268 0-118.743 11.807-173.801 35.095-53.17 22.488-100.918 54.68-141.918 95.68-41 40.999-73.191 88.747-95.68 141.918-23.288 55.057-35.096 113.533-35.096 173.801S76.365 504.52 99.653 559.576c22.489 53.17 54.68 100.918 95.68 141.918s88.748 73.191 141.918 95.68C392.309 820.462 450.784 832.27 511.052 832.27c60.27 0 118.744-11.808 173.802-35.096 53.17-22.489 100.918-54.68 141.918-95.68 41-41 73.192-88.747 95.68-141.918 23.288-55.057 35.096-113.533 35.096-173.802S945.74 267.03 922.452 211.973c-22.488-53.171-54.68-100.92-95.68-141.918-41-41-88.747-73.192-141.918-95.68-55.058-23.288-113.532-35.096-173.802-35.096z m0 857.61c-55.508 0-109.345-10.868-160.02-32.3-48.952-20.707-92.92-50.352-130.682-88.114-37.762-37.762-67.408-81.73-88.113-130.683-21.433-50.673-32.3-104.511-32.3-160.02 0-55.508 10.867-109.346 32.3-160.02 20.705-48.952 50.35-92.92 88.113-130.682 37.762-37.762 81.73-67.407 130.683-88.112 50.673-21.433 104.511-32.3 160.02-32.3s109.346 10.867 160.019 32.3c48.953 20.705 92.921 50.35 130.683 88.112 37.762 37.762 67.406 81.73 88.112 130.683 21.433 50.673 32.3 104.51 32.3 160.02 0 55.508-10.867 109.346-32.3 160.019-20.706 48.954-50.35 92.921-88.112 130.683-37.762 37.762-81.73 67.407-130.683 88.113-50.673 21.433-104.511 32.3-160.02 32.3zM270.38 142.42l178.136 231.2s11.357-23.704 20.357-32.705c8.687-8.687 32.705-20.357 32.705-20.357L270.379 142.421z m-8.109-8.108l186.54 242.104 1.035-2.16c0.113-0.234 11.352-23.581 20.07-32.3 8.414-8.413 32.069-19.957 32.307-20.073l2.142-1.041-1.887-1.454L262.27 134.312z m185.967 236.53L278.487 150.53 498.81 320.287c-6.124 3.088-23.654 12.258-30.981 19.585-7.57 7.57-16.552 24.876-19.592 30.97zM475.427 384.99a36.666 36.666 0 1 1 75.041 0 36.666 36.666 0 1 1-75.041 0z m37.52-38.977c-9.986 0-19.971 3.8-27.573 11.403-7.366 7.364-11.422 17.157-11.422 27.574 0 10.415 4.056 20.208 11.422 27.573 7.364 7.365 17.157 11.42 27.574 11.42 10.416 0 20.208-4.055 27.573-11.42 15.204-15.205 15.204-39.943 0-55.147-7.603-7.603-17.587-11.403-27.573-11.403z m0 75.022c-9.629 0-18.68-3.749-25.488-10.557s-10.557-15.86-10.557-25.488c0-9.629 3.749-18.68 10.557-25.489 14.056-14.054 36.923-14.054 50.977 0 14.054 14.055 14.054 36.923 0 50.977-6.808 6.808-15.86 10.557-25.488 10.557z m60.643-28.466s-11.357 23.704-20.357 32.705c-8.687 8.687-32.705 20.357-32.705 20.357l231.199 178.136L573.59 392.569z m-0.294-2.797l-1.035 2.16c-0.112 0.235-11.351 23.582-20.07 32.3-8.414 8.414-32.069 19.958-32.307 20.073l-2.142 1.041 1.887 1.453 240.206 185.077-186.539-242.104z m-50 56.13c6.124-3.087 23.653-12.258 30.98-19.585 7.571-7.57 16.553-24.876 19.594-30.97l169.748 220.312-220.323-169.756z"  horiz-adv-x="1024" />

    
    <glyph glyph-name="iconseek01" unicode="&#58932;" d="M469.845924 114.581897c-82.278935 0-159.632697 32.041764-217.812771 90.220814-58.180074 58.180074-90.220814 135.533836-90.220814 217.813794 0 82.278935 32.04074 159.632697 90.220814 217.812771 58.180074 58.180074 135.533836 90.221838 217.812771 90.221838 82.277912 0 159.632697-32.041764 217.812771-90.221838 58.179051-58.179051 90.220814-135.533836 90.220814-217.812771 0-82.278935-32.041764-159.632697-90.220814-217.813794C629.479645 146.622638 552.124859 114.581897 469.845924 114.581897zM469.845924 710.182944c-158.565389 0-287.567461-129.002073-287.567461-287.567461s129.002073-287.568485 287.567461-287.568485c158.564365 0 287.567461 129.002073 287.567461 287.568485S628.411313 710.182944 469.845924 710.182944zM851.954599 37.350932c-2.619664 0-5.237281 0.99977-7.235798 2.997264L718.736505 166.329469c-3.996011 3.996011-3.996011 10.475586 0 14.47262 3.997034 3.994987 10.474562 3.994987 14.47262 0l125.981273-125.981273c3.996011-3.996011 3.996011-10.475586 0-14.47262C857.19188 38.350702 854.573239 37.350932 851.954599 37.350932z"  horiz-adv-x="1024" />

    
    <glyph glyph-name="qq" unicode="&#58890;" d="M778.005407 390.340922c-17.481818 17.978402-23.722399 35.843154-22.253123 63.743005 3.604076 70.860032-13.014606 134.005087-49.386085 187.674084-22.01763 32.528837-51.335562 59.19593-84.785896 77.118019-29.197114 15.643944-61.747452 24.762667-94.859904 26.657878v0.32662l-13.828595 0.107508c-0.678836 0.005119-1.345385 0.005119-2.019102 0.005119-37.540755 0-74.828611-9.351145-107.831507-27.042859-33.438047-17.924136-62.739597-44.585086-84.733677-77.09447-36.422673-53.750908-53.05057-116.942038-49.41885-187.868622 1.524565-27.833299-4.700658-45.689859-22.221383-63.709217-46.153679-47.65879-67.185307-97.061257-64.291807-151.094757 0.072696-1.245045 0.134129-2.525925 0.19761-3.829331 0.773033-15.850769 2.067224-42.382709 27.571184-49.987106a30.540451 30.540451 0 0 1 8.834082-1.301358c15.461692 0 25.763003 11.291407 34.040092 20.366103 2.093845 2.295551 4.073016 4.463116 6.002016 6.307134 3.33889 3.232406 6.401331 7.314637 9.363431 11.26069 1.096581 1.462108 2.543331 3.390084 3.946054 5.134785 13.01563-15.297871 24.329563-35.315853 33.696066-59.642344 0.200682-0.51911 0.331739-0.936855 0.416721-1.260403-2.463468-1.493849-8.39586-2.932408-11.424512-3.667557-3.32046-0.805798-6.458669-1.566545-9.240565-2.718415-19.544947-7.888013-47.254356-35.5708-44.849249-70.157647 1.155967-16.13848 10.544995-44.767338 60.436879-55.182299 27.239445-5.692802 53.330091-8.578111 77.548051-8.578112 40.650295 0 74.940215 8.194154 101.962596 24.382806 11.808469 7.135457 24.153455 10.328955 31.149663 10.328955 7.134433 0 19.725151-3.208857 31.740445-10.359672 27.039788-16.176364 61.352233-24.37871 101.984098-24.37871 24.190315 0 50.265602 2.895548 77.488665 8.603709 49.919529 10.420081 59.259411 39.062249 60.382613 55.183323 2.488041 34.752716-24.704305 61.949158-44.807269 70.159694l-0.10546 0.043004c-2.672341 1.065865-5.690755 1.78668-8.886301 2.549474-2.881213 0.688051-9.228278 2.202377-11.730654 3.763802 0.079863 0.3215 0.206825 0.742317 0.407506 1.263475 9.51599 24.471883 20.84221 44.489865 33.726783 59.631081 1.413986-1.758011 2.871998-3.702369 3.97677-5.17574 2.949814-3.933767 5.999968-7.999616 9.356264-11.261715 1.816373-1.750844 3.75254-3.877454 5.801335-6.127953 8.331355-9.151487 18.699218-20.53914 34.213128-20.53914 2.923193 0 5.871982 0.435151 8.824867 1.310573 25.64116 7.735454 26.844225 34.352377 27.561969 50.25434 0.059385 1.303406 0.116723 2.58531 0.1843 3.814996 3.010223 54.021214-17.966116 103.406274-64.139249 150.98725z m36.30595-149.452446c-0.071672-1.331051-0.134129-2.696914-0.196586-4.08735-0.7116-15.761691-2.00272-23.086566-7.703713-24.806693-0.320476-0.095221-0.593853-0.14232-0.83549-0.14232-3.194522 0-9.455581 6.878462-13.599245 11.429631-2.260739 2.482922-4.597245 5.049802-7.026925 7.392452-1.750844 1.701697-4.136497 4.881885-6.443311 7.956613-6.955253 9.274353-14.837122 19.783512-26.870846 19.797847-5.412258 0-10.575712-2.318076-14.548387-6.528293-17.509463-18.317308-32.504264-43.330827-44.588158-74.405746-4.261411-11.104036-2.080535-19.268498 0.498632-24.163694 6.496552-12.327579 20.853472-15.755547 30.354105-18.023453 1.760059-0.419793 4.160046-0.993169 4.987345-1.310574 10.051482-4.145712 28.986194-21.280433 27.475963-42.364279-1.024909-14.726543-13.901291-24.771882-38.284096-29.861615-25.357544-5.317036-49.507927-8.01395-71.779481-8.013951-35.521654 0-65.01979 6.872318-87.700898 20.440847-14.817668 8.818724-32.453069 14.297535-46.023645 14.297535-13.46102 0-30.921337-5.496216-45.519894-14.316989-22.588958-13.532692-52.059449-20.394772-87.592365-20.394772-22.305342 0-46.477227 2.688723-71.849105 7.990401-24.379733 5.089734-37.275569 15.144288-38.330171 29.85752-1.411938 20.298527 16.874654 38.096725 27.508727 42.358136l0.200681 0.081911c0.791463 0.326619 3.30715 0.936855 5.145024 1.383269 9.404387 2.28224 23.616939 5.729662 30.019294 17.971235 2.55357 4.883933 4.699634 13.029965 0.423888 24.083831-11.869903 30.828163-26.85856 55.867279-44.534916 74.407794-5.129665 5.395876-10.761035 6.527269-14.582175 6.527269-12.01939 0-19.886925-10.483562-26.827843-19.732318-2.310909-3.080871-4.701681-6.265154-6.386996-7.898251-2.554594-2.439919-4.954581-5.07028-7.27573-7.614635-4.096565-4.490761-10.288-11.278097-13.446686-11.278097-0.281568 0-0.51911 0.033788-0.820132 0.124914-5.678468 1.693506-6.977778 8.972307-7.742621 24.645943a429.19225 429.19225 0 0 1-0.208872 4.024894c-2.452205 45.798391 16.023805 88.371542 56.465228 130.129681 23.015918 23.671205 32.00256 48.986769 30.052058 84.597501-3.312269 64.686003 11.713248 122.137233 44.664949 170.764619 38.471467 56.864543 98.056474 90.115219 164.128818 91.821012h8.233062c68.209193 0 130.000672-33.494361 169.533908-91.902923 32.901531-48.548547 47.915785-105.954725 44.629114-170.601821-1.87883-35.679332 7.125218-60.985682 30.097109-84.60774 40.437327-41.671109 58.853952-84.19921 56.300382-130.029341z"  horiz-adv-x="1024" />

    
    <glyph glyph-name="QQ" unicode="&#59510;" d="M666.122449-13.061224c-10.44898 0-21.420408 1.044898-31.869388 2.612244-39.183673 4.702041-74.710204 23.510204-100.832653 53.289796-13.583673-5.22449-28.212245-5.22449-41.795918 0-21.420408-28.212245-61.64898-48.065306-108.669388-53.289796-66.35102-7.314286-138.44898 11.493878-144.718367 55.379592-5.22449 34.481633 37.093878 61.126531 81.502041 75.755102-25.6 28.212245-43.363265 63.738776-51.2 101.355102l-0.522449-0.522449c-25.077551-31.346939-41.795918-50.155102-61.126531-50.155102-2.089796 0-4.179592 0.522449-6.269388 1.044898-7.314286 2.612245-13.061224 8.881633-17.240816 18.808164-16.195918 34.481633-9.404082 100.310204 15.15102 150.465306 0 0 0 0.522449 0.522449 0.522449 12.538776 22.465306 27.689796 43.363265 45.453061 62.171428-6.269388 11.493878-10.44898 24.032653-12.016326 37.093878v3.134694c0.522449 19.330612 10.44898 37.093878 26.644898 47.542857-10.971429 73.142857 9.926531 147.330612 58.514286 203.232653 49.110204 56.946939 120.163265 88.816327 194.873469 86.204081h4.702041c65.306122 0 129.567347-26.122449 177.110204-72.097959 49.110204-47.542857 76.8-112.326531 77.844898-180.767347v-7.314285c0.522449-9.926531 0-19.330612-1.044898-29.257143 14.106122-8.881633 21.420408-20.37551 21.420408-48.065306 0-13.583673-1.044898-27.689796-9.926531-36.04898 13.061224-17.763265 28.734694-42.840816 41.27347-62.693877l2.612245-4.179592c20.37551-32.391837 23.510204-74.187755 22.987755-96.130613 0-17.240816-2.089796-58.514286-18.285714-70.530612-3.657143-2.612245-7.314286-3.657143-12.016327-3.657143h-4.179592c-26.122449 0-41.273469 23.510204-57.991837 48.587755l-1.567347 2.089796c-8.881633-36.571429-26.122449-71.053061-50.677551-99.265306 27.167347-9.404082 83.069388-31.346939 75.755103-73.142857-5.746939-35.526531-55.902041-62.171429-114.416327-62.171428z m-388.702041 63.738775z m250.253061 11.493878z m276.375511 140.016326z m-47.020409 235.102041z"  horiz-adv-x="1024" />

    
    <glyph glyph-name="weixin" unicode="&#59033;" d="M512 384m-512 0a512 512 0 1 1 1024 0 512 512 0 1 1-1024 0ZM825.804 313.632c0 89.149-85.233 161.42-190.375 161.42-105.141 0-190.375-72.271-190.375-161.42 0-89.15 85.234-161.42 190.375-161.42 22.077 0 43.27 3.196 62.986 9.057 5.626 1.672 62.218-38.114 65.089-35.691s-25.78 51.72-18.917 55.8c49.106 29.191 81.217 77.541 81.217 132.254zM575.95 336.793c-14.723 0-26.658 11.938-26.658 26.662 0 14.723 11.936 26.658 26.658 26.658 14.724 0 26.658-11.936 26.658-26.658 0-14.724-11.934-26.662-26.658-26.662z m124.025 0c-14.723 0-26.658 11.938-26.658 26.662 0 14.723 11.936 26.658 26.658 26.658 14.724 0 26.659-11.936 26.659-26.658 0-14.724-11.936-26.662-26.659-26.662z m0 0M422.978 643.708c-124.531 0-225.481-85.883-225.481-191.821 0-27.123 6.621-52.928 18.559-76.314C232.757 379.721 250.956 382 270 382c81.186 0 147-41.414 147-92.5 0-10.162-2.612-19.938-7.423-29.085 4.435-0.222 8.9-0.348 13.401-0.348 5.83 0 11.61 0.187 17.327 0.556-6.309 16.715-9.73 34.521-9.73 53.009 0.004 95.927 91.717 173.693 204.854 173.693 3.09 0 6.159-0.067 9.215-0.184-19.46 89.099-111.297 156.567-221.666 156.567z m-77.09-161.42c-18.392 0-33.299 14.908-33.299 33.299 0 18.388 14.908 33.296 33.299 33.296 18.387 0 33.295-14.908 33.295-33.296 0-18.391-14.908-33.299-33.295-33.299z m154.904 0c-18.388 0-33.296 14.908-33.296 33.299 0 18.388 14.908 33.296 33.296 33.296 18.391 0 33.298-14.908 33.298-33.296 0-18.391-14.907-33.299-33.298-33.299zM270 382c-19.044 0-37.243-2.279-53.944-6.427 15.305-29.982 39.35-55.989 69.399-75.694 8.851-5.804-29.853-61.271-22.529-66.45s67.883 43.248 74.597 40.906c22.437-7.824 46.68-12.652 72.053-13.92 4.811 9.146 7.423 18.923 7.423 29.085C417 340.586 351.186 382 270 382z"  horiz-adv-x="1024" />

    
    <glyph glyph-name="arrow-right" unicode="&#59203;" d="M593.450667 383.872L360.064 617.386667l45.290667 45.226666 278.613333-278.762666L405.333333 105.386667l-45.226666 45.269333z"  horiz-adv-x="1024" />

    
    <glyph glyph-name="arrow-lift" unicode="&#59204;" d="M641.28 617.386667l-45.226667 45.226666-278.634666-278.762666 278.613333-278.485334 45.248 45.269334-233.365333 233.237333z"  horiz-adv-x="1024" />

    
    <glyph glyph-name="category" unicode="&#59207;" d="M256 161.898667v-64H170.666667v64h85.333333z m597.333333 0v-64H298.666667v64h554.666666zM256 402.816v-64H170.666667v64h85.333333z m597.333333 0v-64H298.666667v64h554.666666zM256 643.754667v-64H170.666667v64h85.333333z m597.333333 0v-64H298.666667v64h554.666666z"  horiz-adv-x="1024" />

    
    <glyph glyph-name="cart-Empty" unicode="&#59208;" d="M330.666667 128a53.333333 53.333333 0 1 0 0-106.666667 53.333333 53.333333 0 0 0 0 106.666667z m384 0a53.333333 53.333333 0 1 0 0-106.666667 53.333333 53.333333 0 0 0 0 106.666667zM94.762667 736h54.741333a96 96 0 0 0 92.906667-71.786667l1.024-4.394666L256.64 597.333333h0.213333l42.88-205.333333L332.224 234.666667h402.218667l61.653333 298.666666H313.813333l-13.376 64h495.68a64 64 0 0 0 62.677334-76.949333l-61.653334-298.666667A64 64 0 0 0 734.442667 170.666667H332.224a64 64 0 0 0-62.677333 51.050666l-60.586667 293.418667-0.405333-0.085333-27.733334 131.562666a32 32 0 0 1-28.309333 25.237334l-2.986667 0.149333H94.741333v64h54.741334z"  horiz-adv-x="1024" />

    
    <glyph glyph-name="homepagenormal" unicode="&#58887;" d="M954.548208 407.071462 552.555671 809.065022c-12.276604 12.277628-28.5308 19.155269-45.766346 19.368116-0.275269 0.00307-0.548492 0.005117-0.822738 0.005117-17.124006 0-33.134655-6.594185-45.160549-18.62008L68.384483 417.395598c-8.086166-8.086166-8.086166-21.195741 0-29.280884 8.086166-8.086166 21.194718-8.085142 29.280884 0L490.087944 780.536268c4.26207 4.261047 10.031471 6.567579 16.191774 6.488785 6.367011-0.077771 12.403494-2.650363 16.995069-7.241938l401.99356-401.992537c4.042059-4.043083 9.341762-6.064113 14.640442-6.064113 5.298679 0 10.598382 2.02103 14.640442 6.064113C962.634374 385.876744 962.634374 398.986319 954.548208 407.071462zM884.131439 339.167932c-11.434423 0-20.705578-9.269108-20.705578-20.704554l0-312.38366c0-12.890588-8.676613-23.779589-18.945491-23.779589L647.036509-17.699871c-11.435447 0-20.705578-9.270131-20.705578-20.705578 0-11.435447 9.270131-20.704554 20.705578-20.704554l197.443861 0c33.280987 0 60.356646 29.244045 60.356646 65.189721L904.837017 318.464401C904.835993 329.898825 895.565862 339.167932 884.131439 339.167932zM610.585319 160.679795 392.919904 160.679795c-11.435447 0-20.704554-9.270131-20.704554-20.705578l0-133.8945c0-12.890588-7.656377-23.779589-16.718777-23.779589L169.144328-17.699871c-9.0624 0-16.718777 10.890025-16.718777 23.779589L152.425551 318.464401c0 11.435447-9.270131 20.704554-20.704554 20.704554s-20.704554-9.269108-20.704554-20.704554l0-312.38366c0-35.945677 26.075889-65.189721 58.127885-65.189721l186.352245 0c32.051997 0 58.127885 29.244045 58.127885 65.189721L413.624459 119.269663l196.960861 0c11.435447 0 20.704554 9.270131 20.704554 20.705578C631.289873 151.409664 622.020766 160.679795 610.585319 160.679795z"  horiz-adv-x="1024" />

    
    <glyph glyph-name="all" unicode="&#59119;" d="M490.666667 362.666667v-256a64 64 0 0 0-64-64h-192a64 64 0 0 0-64 64v192a64 64 0 0 0 64 64h256z m298.666666 0a64 64 0 0 0 64-64v-192a64 64 0 0 0-64-64h-192a64 64 0 0 0-64 64V362.666667h256z m-362.666666-64h-192v-192h192v192z m362.666666 0h-192v-192h192v192zM426.666667 725.333333a64 64 0 0 0 64-64v-256H234.666667a64 64 0 0 0-64 64v192a64 64 0 0 0 64 64h192z m266.666666 0a160 160 0 1 0 0-320 160 160 0 0 0 0 320zM426.666667 661.333333h-192v-192h192v192z m266.666666 0a96 96 0 1 1 0-192 96 96 0 0 1 0 192z"  horiz-adv-x="1024" />

    
    <glyph glyph-name="bussiness-man" unicode="&#59120;" d="M644.8 314.432l160.64-187.456A64 64 0 0 0 756.842667 21.333333H267.157333a64 64 0 0 0-48.597333 105.642667l160.661333 187.434667c18.922667-11.52 39.466667-20.629333 61.205334-26.944L267.157333 85.333333H480v128h64v-128h212.842667l-173.269334 202.133334a254.613333 254.613333 0 0 1 61.226667 26.965333zM512 746.666667c117.824 0 213.333333-95.509333 213.333333-213.333334s-95.509333-213.333333-213.333333-213.333333-213.333333 95.509333-213.333333 213.333333S394.176 746.666667 512 746.666667z m0-64a149.333333 149.333333 0 1 1 0-298.666667 149.333333 149.333333 0 0 1 0 298.666667z"  horiz-adv-x="1024" />

    
    <glyph glyph-name="cart-full" unicode="&#59206;" d="M330.666667 128a53.333333 53.333333 0 1 0 0-106.666667 53.333333 53.333333 0 0 0 0 106.666667z m384 0a53.333333 53.333333 0 1 0 0-106.666667 53.333333 53.333333 0 0 0 0 106.666667zM94.762667 736h54.741333a96 96 0 0 0 92.906667-71.786667l1.024-4.394666L256.64 597.333333h0.213333l42.88-205.333333L332.224 234.666667h402.218667l61.653333 298.666666H313.813333l-13.376 64h495.68a64 64 0 0 0 62.677334-76.949333l-61.653334-298.666667A64 64 0 0 0 734.442667 170.666667H332.224a64 64 0 0 0-62.677333 51.050666l-60.586667 293.418667-0.405333-0.085333-27.733334 131.562666a32 32 0 0 1-28.309333 25.237334l-2.986667 0.149333H94.741333v64h54.741334zM682.666667 426.666667v-64H384v64h298.666667z"  horiz-adv-x="1024" />

    


  </font>
</defs>
</svg>
